<svg width="38" height="38" viewBox="0 0 38 38" fill="none" xmlns="http://www.w3.org/2000/svg">
<path d="M37.4072 33.5712L23.9428 20.1068C25.4864 17.7291 26.2146 14.8889 26.0002 12.0378C25.7668 8.93646 24.4256 6.01585 22.2237 3.81383C19.7631 1.3533 16.4954 0 13.0174 0C13.0006 0 12.9838 7.56711e-05 12.9669 7.56711e-05C9.47043 0.0133181 6.19297 1.39303 3.73827 3.88511C-1.27933 8.97898 -1.23264 17.2227 3.84232 22.2618C6.04525 24.4493 8.96185 25.7792 12.0548 26.0067C14.8984 26.2157 17.7307 25.4871 20.1018 23.9477L33.5662 37.412C33.9582 37.804 34.4731 38 34.9879 38C35.5028 38 36.0177 37.804 36.4097 37.4121L37.4072 36.4146C38.1911 35.6307 38.1911 34.3551 37.4072 33.5712ZM36.337 35.3444L35.3395 36.3419C35.1456 36.5358 34.8303 36.5357 34.6364 36.3419L20.7276 22.4332C20.5811 22.2866 20.3874 22.2115 20.1924 22.2115C20.0377 22.2115 19.8823 22.2587 19.7491 22.3551C15.1681 25.6686 8.92674 25.1777 4.9086 21.1879C0.423419 16.7344 0.382103 9.44883 4.81643 4.94715C6.98592 2.74459 9.88254 1.52515 12.9726 1.5135C12.9876 1.5135 13.0022 1.51342 13.0173 1.51342C16.0908 1.51342 18.979 2.70956 21.1534 4.88397C25.1722 8.90271 25.6755 15.1564 22.3501 19.754C22.1323 20.0551 22.1654 20.4698 22.4282 20.7326L36.337 34.6413C36.5309 34.8352 36.5309 35.1505 36.337 35.3444Z" fill="black"/>
<path d="M19.6467 6.39035C15.9905 2.73422 10.0414 2.73422 6.38512 6.39035C4.61397 8.16151 3.63857 10.5164 3.63857 13.0212C3.63857 15.526 4.61397 17.8809 6.38512 19.652C8.15628 21.4232 10.5112 22.3987 13.016 22.3987C15.5208 22.3987 17.8757 21.4232 19.6468 19.652C23.303 15.9958 23.303 10.0466 19.6467 6.39035ZM18.5767 18.5819C17.0913 20.0672 15.1165 20.8852 13.016 20.8852C10.9155 20.8852 8.94061 20.0671 7.45534 18.5818C5.97007 17.0965 5.15206 15.1217 5.15206 13.0212C5.15206 10.9207 5.96999 8.94591 7.45534 7.46057C8.98859 5.92724 11.0019 5.16092 13.016 5.16092C15.0296 5.16092 17.0437 5.9277 18.5766 7.46057C21.6428 10.5268 21.6428 15.5158 18.5767 18.5819Z" fill="black"/>
<path d="M8.40078 11.6484C8.51951 11.2477 8.29091 10.8266 7.89023 10.7078C7.48963 10.5891 7.06844 10.8176 6.94972 11.2183C6.28911 13.4475 6.89917 15.8527 8.54184 17.4954C8.68955 17.6431 8.88326 17.717 9.07691 17.717C9.27055 17.717 9.46419 17.6431 9.61198 17.4955C9.90747 17.1999 9.90747 16.7208 9.61198 16.4253C8.36212 15.1754 7.89795 13.345 8.40078 11.6484Z" fill="black"/>
<path d="M10.7051 7.12929C9.8918 7.44794 9.16392 7.92489 8.54183 8.54699C8.24633 8.84256 8.24633 9.32171 8.54183 9.6172C8.68954 9.76491 8.88326 9.83884 9.0769 9.83884C9.27054 9.83884 9.46418 9.76491 9.61189 9.6172C10.0856 9.1435 10.6391 8.78051 11.2571 8.53851C11.6462 8.38603 11.8381 7.94707 11.6857 7.55789C11.5333 7.16871 11.0942 6.97704 10.7051 7.12929Z" fill="black"/>
</svg>
