<svg width="38" height="38" viewBox="0 0 38 38" fill="none" xmlns="http://www.w3.org/2000/svg">
<path d="M9.73742 24.0699L5.08727 5.86202H7.29642e-09V3H7.31018L8.40642 7.29218L38 7.27101L34.8538 24.0697H9.73742V24.0699ZM9.13716 10.1537L11.9603 21.2078H32.478L34.5518 10.1355L9.13716 10.1537Z" fill="black"/>
<path d="M13.6553 34.4999C11.1316 34.4999 9.07844 32.4467 9.07844 29.923C9.07844 27.3994 11.1316 25.3463 13.6553 25.3463H30.899C33.4226 25.3463 35.4758 27.3994 35.4758 29.923C35.4758 32.4467 33.4227 34.4999 30.899 34.4999C28.3753 34.4999 26.3221 32.4467 26.3221 29.923C26.3221 29.317 26.4409 28.7382 26.6558 28.2083H17.8985C18.1134 28.7382 18.2321 29.317 18.2321 29.923C18.2321 32.4467 16.1789 34.4999 13.6553 34.4999ZM29.1842 29.923C29.1842 30.8686 29.9534 31.6379 30.899 31.6379C31.8445 31.6379 32.6138 30.8686 32.6138 29.923C32.6138 28.9775 31.8446 28.2083 30.899 28.2083C29.9534 28.2083 29.1842 28.9775 29.1842 29.923ZM11.9404 29.923C11.9404 30.8686 12.7097 31.6379 13.6552 31.6379C14.6008 31.6379 15.37 30.8686 15.37 29.923C15.37 28.9775 14.6008 28.2083 13.6552 28.2083C12.7097 28.2083 11.9404 28.9775 11.9404 29.923Z" fill="black"/>
</svg>
