<svg class="logosvg" width="132" height="142" viewBox="0 0 132 142" fill="none" xmlns="http://www.w3.org/2000/svg">
<path d="M116.869 72.0731H89.6355V24.7865H116.869V33.0018H99.662V43.3842H115.672V51.5995H99.662V63.7931H116.869V72.0731Z" fill="#DC633A"/>
<path d="M116.869 72.0731V74.8331H119.629V72.0731H116.869ZM89.6355 72.0731H86.8755V74.8331H89.6355V72.0731ZM89.6355 24.7865V22.0265H86.8755V24.7865H89.6355ZM116.869 24.7865H119.629V22.0265H116.869V24.7865ZM116.869 33.0018V35.7618H119.629V33.0018H116.869ZM99.662 33.0018V30.2418H96.902V33.0018H99.662ZM99.662 43.3842H96.902V46.1442H99.662V43.3842ZM115.672 43.3842H118.432V40.6242H115.672V43.3842ZM115.672 51.5995V54.3595H118.432V51.5995H115.672ZM99.662 51.5995V48.8395H96.902V51.5995H99.662ZM99.662 63.7931H96.902V66.5531H99.662V63.7931ZM116.869 63.7931H119.629V61.0331H116.869V63.7931ZM116.869 69.3131H89.6355V74.8331H116.869V69.3131ZM92.3955 72.0731V24.7865H86.8755V72.0731H92.3955ZM89.6355 27.5465H116.869V22.0265H89.6355V27.5465ZM114.109 24.7865V33.0018H119.629V24.7865H114.109ZM116.869 30.2418H99.662V35.7618H116.869V30.2418ZM96.902 33.0018V43.3842H102.422V33.0018H96.902ZM99.662 46.1442H115.672V40.6242H99.662V46.1442ZM112.912 43.3842V51.5995H118.432V43.3842H112.912ZM115.672 48.8395H99.662V54.3595H115.672V48.8395ZM96.902 51.5995V63.7931H102.422V51.5995H96.902ZM99.662 66.5531H116.869V61.0331H99.662V66.5531ZM114.109 63.7931V72.0731H119.629V63.7931H114.109Z" fill="#632009" fill-opacity="0.7"/>
<path d="M67.5556 24.0567C71.9061 24.0567 75.4915 24.5814 78.3117 25.6307C81.1537 26.6801 83.2634 28.2651 84.6407 30.3857C86.018 32.5063 86.7067 35.1844 86.7067 38.42C86.7067 40.6062 86.2913 42.5191 85.4606 44.1588C84.6298 45.7984 83.5367 47.1867 82.1813 48.3235C80.8258 49.4603 79.3611 50.3894 77.787 51.1109L91.888 72H80.6072L69.1624 53.6031H63.7516V72H53.5858V24.0567H67.5556ZM66.8341 32.3861H63.7516V45.3393H67.0309C70.3976 45.3393 72.8025 44.7818 74.2454 43.6669C75.7101 42.5301 76.4425 40.8685 76.4425 38.6823C76.4425 36.4087 75.6555 34.7909 74.0814 33.829C72.5292 32.8671 70.1134 32.3861 66.8341 32.3861Z" fill="#DC633A"/>
<path d="M78.3117 25.6307L77.5096 27.7864L77.515 27.7884L78.3117 25.6307ZM82.1813 48.3235L83.6593 50.0857L82.1813 48.3235ZM77.787 51.1109L76.8287 49.02L74.3634 50.15L75.8807 52.3977L77.787 51.1109ZM91.888 72V74.3H96.2155L93.7943 70.7132L91.888 72ZM80.6072 72L78.6543 73.2149L79.3293 74.3H80.6072V72ZM69.1624 53.6031L71.1154 52.3882L70.4404 51.3031H69.1624V53.6031ZM63.7516 53.6031V51.3031H61.4516V53.6031H63.7516ZM63.7516 72V74.3H66.0516V72H63.7516ZM53.5858 72H51.2858V74.3H53.5858V72ZM53.5858 24.0567V21.7567H51.2858V24.0567H53.5858ZM63.7516 32.3861V30.0861H61.4516V32.3861H63.7516ZM63.7516 45.3393H61.4516V47.6393H63.7516V45.3393ZM74.2454 43.6669L75.6517 45.4868L75.6555 45.4838L74.2454 43.6669ZM74.0814 33.829L72.8698 35.784L72.8759 35.7878L72.8821 35.7915L74.0814 33.829ZM67.5556 26.3567C71.7438 26.3567 75.0331 26.8649 77.5096 27.7864L79.1138 23.4751C75.9499 22.2979 72.0685 21.7567 67.5556 21.7567V26.3567ZM77.515 27.7884C79.9868 28.701 81.6548 30.011 82.7119 31.6385L86.5696 29.1329C84.872 26.5192 82.3207 24.6592 79.1083 23.4731L77.515 27.7884ZM82.7119 31.6385C83.7876 33.2948 84.4067 35.5059 84.4067 38.42H89.0067C89.0067 34.863 88.2485 31.7179 86.5696 29.1329L82.7119 31.6385ZM84.4067 38.42C84.4067 40.313 84.0482 41.8574 83.4089 43.1192L87.5122 45.1983C88.5344 43.1808 89.0067 40.8994 89.0067 38.42H84.4067ZM83.4089 43.1192C82.713 44.4928 81.8113 45.6319 80.7032 46.5612L83.6593 50.0857C85.2621 48.7414 86.5466 47.1041 87.5122 45.1983L83.4089 43.1192ZM80.7032 46.5612C79.5021 47.5686 78.2115 48.3862 76.8287 49.02L78.7453 53.2017C80.5106 52.3926 82.1495 51.3519 83.6593 50.0857L80.7032 46.5612ZM75.8807 52.3977L89.9817 73.2868L93.7943 70.7132L79.6933 49.824L75.8807 52.3977ZM91.888 69.7H80.6072V74.3H91.888V69.7ZM82.5601 70.7851L71.1154 52.3882L67.2095 54.8181L78.6543 73.2149L82.5601 70.7851ZM69.1624 51.3031H63.7516V55.9031H69.1624V51.3031ZM61.4516 53.6031V72H66.0516V53.6031H61.4516ZM63.7516 69.7H53.5858V74.3H63.7516V69.7ZM55.8858 72V24.0567H51.2858V72H55.8858ZM53.5858 26.3567H67.5556V21.7567H53.5858V26.3567ZM66.8341 30.0861H63.7516V34.6861H66.8341V30.0861ZM61.4516 32.3861V45.3393H66.0516V32.3861H61.4516ZM63.7516 47.6393H67.0309V43.0393H63.7516V47.6393ZM67.0309 47.6393C70.5309 47.6393 73.5855 47.0834 75.6517 45.4868L72.839 41.8469C72.0194 42.4803 70.2644 43.0393 67.0309 43.0393V47.6393ZM75.6555 45.4838C77.7857 43.8306 78.7425 41.4362 78.7425 38.6823H74.1425C74.1425 40.3009 73.6345 41.2295 72.8352 41.8499L75.6555 45.4838ZM78.7425 38.6823C78.7425 35.8231 77.7043 33.3475 75.2807 31.8664L72.8821 35.7915C73.6066 36.2343 74.1425 36.9942 74.1425 38.6823H78.7425ZM75.293 31.874C73.189 30.5701 70.2474 30.0861 66.8341 30.0861V34.6861C69.9795 34.6861 71.8693 35.164 72.8698 35.784L75.293 31.874Z" fill="#632009" fill-opacity="0.7"/>
<path d="M51.9875 71.5008H40.6025L28.2148 51.577L23.9778 54.6173V71.5008H13.9512V24.2142H23.9778V45.8522C24.6462 44.925 25.3039 43.9978 25.9508 43.0706C26.5977 42.1434 27.2553 41.2162 27.9237 40.289L40.7319 24.2142H51.8581L35.3628 45.1406L51.9875 71.5008Z" fill="#DC633A"/>
<path d="M51.9875 71.5008V73.8008H56.1573L53.9329 70.2738L51.9875 71.5008ZM40.6025 71.5008L38.6493 72.7152L39.3242 73.8008H40.6025V71.5008ZM28.2148 51.577L30.1681 50.3626L28.8705 48.2757L26.874 49.7083L28.2148 51.577ZM23.9778 54.6173L22.6369 52.7486L21.6778 53.4368V54.6173H23.9778ZM23.9778 71.5008V73.8008H26.2778V71.5008H23.9778ZM13.9512 71.5008H11.6512V73.8008H13.9512V71.5008ZM13.9512 24.2142V21.9142H11.6512V24.2142H13.9512ZM23.9778 24.2142H26.2778V21.9142H23.9778V24.2142ZM23.9778 45.8522H21.6778V52.9754L25.8435 47.1972L23.9778 45.8522ZM27.9237 40.289L26.1249 38.8558L26.0904 38.8991L26.058 38.944L27.9237 40.289ZM40.7319 24.2142V21.9142H39.6237L38.9331 22.7809L40.7319 24.2142ZM51.8581 24.2142L53.6644 25.638L56.5997 21.9142H51.8581V24.2142ZM35.3628 45.1406L33.5565 43.7168L32.5505 44.993L33.4174 46.3675L35.3628 45.1406ZM51.9875 69.2008H40.6025V73.8008H51.9875V69.2008ZM42.5557 70.2863L30.1681 50.3626L26.2616 52.7914L38.6493 72.7152L42.5557 70.2863ZM26.874 49.7083L22.6369 52.7486L25.3187 56.486L29.5557 53.4457L26.874 49.7083ZM21.6778 54.6173V71.5008H26.2778V54.6173H21.6778ZM23.9778 69.2008H13.9512V73.8008H23.9778V69.2008ZM16.2512 71.5008V24.2142H11.6512V71.5008H16.2512ZM13.9512 26.5142H23.9778V21.9142H13.9512V26.5142ZM21.6778 24.2142V45.8522H26.2778V24.2142H21.6778ZM25.8435 47.1972C26.5188 46.2605 27.1833 45.3236 27.8371 44.3866L24.0645 41.7546C23.4245 42.6719 22.7737 43.5895 22.1121 44.5071L25.8435 47.1972ZM27.8371 44.3866C28.4771 43.4693 29.1279 42.5518 29.7895 41.6341L26.058 38.944C25.3827 39.8807 24.7182 40.8176 24.0645 41.7546L27.8371 44.3866ZM29.7226 41.7223L42.5307 25.6475L38.9331 22.7809L26.1249 38.8558L29.7226 41.7223ZM40.7319 26.5142H51.8581V21.9142H40.7319V26.5142ZM50.0518 22.7904L33.5565 43.7168L37.1691 46.5644L53.6644 25.638L50.0518 22.7904ZM33.4174 46.3675L50.0421 72.7277L53.9329 70.2738L37.3082 43.9137L33.4174 46.3675Z" fill="#632009" fill-opacity="0.7"/>
<path d="M93.7397 100.372C93.7397 103.684 92.9553 106.487 91.3867 108.782C89.847 111.048 87.5376 112.776 84.4584 113.967C81.3791 115.129 77.5446 115.71 72.9548 115.71C69.556 115.71 66.6365 115.492 64.1964 115.056C61.7852 114.621 59.3451 113.895 56.8759 112.878V101.897C59.5194 103.088 62.3517 104.076 65.3729 104.86C68.4231 105.615 71.0956 105.993 73.3905 105.993C75.9759 105.993 77.8206 105.615 78.9244 104.86C80.0574 104.076 80.6238 103.059 80.6238 101.81C80.6238 100.997 80.3914 100.27 79.9266 99.6312C79.4909 98.9631 78.5323 98.2223 77.0507 97.4089C75.5692 96.5665 73.2453 95.4771 70.0789 94.1409C67.0287 92.8627 64.5159 91.57 62.5405 90.2628C60.5942 88.9555 59.1417 87.4159 58.1831 85.6439C57.2535 83.8428 56.7887 81.5624 56.7887 78.8027C56.7887 74.3001 58.5317 70.9158 62.0176 68.65C65.5326 66.355 70.2241 65.2076 76.0921 65.2076C79.1133 65.2076 81.9892 65.5126 84.7198 66.1226C87.4795 66.7327 90.3118 67.7058 93.2168 69.0421L89.208 78.6284C86.7968 77.5827 84.5165 76.7257 82.3668 76.0576C80.2462 75.3894 78.082 75.0554 75.8742 75.0554C73.9279 75.0554 72.4609 75.3168 71.4732 75.8397C70.4856 76.3626 69.9917 77.1614 69.9917 78.2363C69.9917 79.0206 70.2386 79.7178 70.7325 80.3278C71.2554 80.9379 72.2431 81.6205 73.6955 82.3758C75.1771 83.1021 77.3412 84.0462 80.1881 85.2082C82.9478 86.3411 85.3444 87.5321 87.3778 88.7812C89.4113 90.0013 90.98 91.5264 92.0839 93.3565C93.1877 95.1576 93.7397 97.4961 93.7397 100.372Z" fill="#DC633A"/>
<path d="M91.3867 108.782L89.4879 107.484L89.4843 107.489L91.3867 108.782ZM84.4584 113.967L85.2704 116.119L85.2793 116.116L85.2881 116.112L84.4584 113.967ZM64.1964 115.056L63.7873 117.32L63.792 117.321L64.1964 115.056ZM56.8759 112.878H54.5759V114.418L56.0002 115.005L56.8759 112.878ZM56.8759 101.897L57.8207 99.8001L54.5759 98.3382V101.897H56.8759ZM65.3729 104.86L64.7949 107.086L64.8074 107.09L64.82 107.093L65.3729 104.86ZM78.9244 104.86L80.2232 106.758L80.2336 106.751L78.9244 104.86ZM79.9266 99.6312L78.0001 100.888L78.0321 100.937L78.0666 100.984L79.9266 99.6312ZM77.0507 97.4089L75.9139 99.4083L75.9288 99.4168L75.9439 99.4251L77.0507 97.4089ZM70.0789 94.1409L70.9731 92.0218L70.9678 92.0196L70.0789 94.1409ZM62.5405 90.2628L61.2582 92.1721L61.2647 92.1765L61.2712 92.1808L62.5405 90.2628ZM58.1831 85.6439L56.1393 86.6988L56.1495 86.7186L56.1602 86.7383L58.1831 85.6439ZM62.0176 68.65L63.2711 70.5784L63.275 70.5758L62.0176 68.65ZM84.7198 66.1226L84.2183 68.3673L84.2234 68.3684L84.7198 66.1226ZM93.2168 69.0421L95.3387 69.9295L96.1955 67.8807L94.178 66.9526L93.2168 69.0421ZM89.208 78.6284L88.2927 80.7385L90.4308 81.6659L91.3299 79.5158L89.208 78.6284ZM82.3668 76.0576L81.6756 78.2513L81.6841 78.2539L82.3668 76.0576ZM70.7325 80.3278L68.9448 81.775L68.9652 81.8001L68.9862 81.8247L70.7325 80.3278ZM73.6955 82.3758L72.6344 84.4164L72.6586 84.429L72.6832 84.441L73.6955 82.3758ZM80.1881 85.2082L81.0616 83.0805L81.0573 83.0787L80.1881 85.2082ZM87.3778 88.7812L86.174 90.741L86.1842 90.7473L86.1945 90.7535L87.3778 88.7812ZM92.0839 93.3565L90.1144 94.5445L90.1186 94.5515L90.1229 94.5584L92.0839 93.3565ZM91.4397 100.372C91.4397 103.311 90.7484 105.64 89.4879 107.484L93.2855 110.08C95.1622 107.334 96.0397 104.056 96.0397 100.372H91.4397ZM89.4843 107.489C88.2573 109.295 86.363 110.764 83.6286 111.822L85.2881 116.112C88.7122 114.788 91.4368 112.8 93.289 110.074L89.4843 107.489ZM83.6463 111.815C80.907 112.849 77.3686 113.41 72.9548 113.41V118.01C77.7206 118.01 81.8512 117.409 85.2704 116.119L83.6463 111.815ZM72.9548 113.41C69.6455 113.41 66.8686 113.197 64.6007 112.792L63.792 117.321C66.4044 117.787 69.4664 118.01 72.9548 118.01V113.41ZM64.6054 112.793C62.3678 112.389 60.0838 111.711 57.7516 110.751L56.0002 115.005C58.6063 116.078 61.2027 116.853 63.7873 117.32L64.6054 112.793ZM59.1759 112.878V101.897H54.5759V112.878H59.1759ZM55.9311 103.994C58.7016 105.242 61.6575 106.272 64.7949 107.086L65.9508 102.634C63.0459 101.88 60.3372 100.934 57.8207 99.8001L55.9311 103.994ZM64.82 107.093C67.9897 107.878 70.8551 108.293 73.3905 108.293V103.693C71.3361 103.693 68.8564 103.353 65.9257 102.628L64.82 107.093ZM73.3905 108.293C76.0752 108.293 78.5185 107.925 80.2232 106.758L77.6257 102.962C77.1226 103.306 75.8766 103.693 73.3905 103.693V108.293ZM80.2336 106.751C81.9122 105.589 82.9238 103.901 82.9238 101.81H78.3238C78.3238 102.218 78.2025 102.562 77.6153 102.969L80.2336 106.751ZM82.9238 101.81C82.9238 100.526 82.5463 99.3228 81.7867 98.2784L78.0666 100.984C78.2366 101.218 78.3238 101.467 78.3238 101.81H82.9238ZM81.8531 98.3748C81.0839 97.1954 79.6783 96.2277 78.1576 95.3928L75.9439 99.4251C77.3862 100.217 77.8979 100.731 78.0001 100.888L81.8531 98.3748ZM78.1876 95.4096C76.5836 94.4975 74.157 93.3655 70.9731 92.0218L69.1846 96.2599C72.3335 97.5888 74.5549 98.6355 75.9139 99.4083L78.1876 95.4096ZM70.9678 92.0196C68.0026 90.777 65.6284 89.5482 63.8098 88.3447L61.2712 92.1808C63.4034 93.5918 66.0548 94.9484 69.19 96.2621L70.9678 92.0196ZM63.8229 88.3534C62.135 87.2198 60.9605 85.9441 60.2061 84.5495L56.1602 86.7383C57.323 88.8878 59.0534 90.6913 61.2582 92.1721L63.8229 88.3534ZM60.2269 84.589C59.5154 83.2103 59.0887 81.3217 59.0887 78.8027H54.4887C54.4887 81.8032 54.9917 84.4753 56.1393 86.6988L60.2269 84.589ZM59.0887 78.8027C59.0887 75.0016 60.4999 72.3797 63.2711 70.5784L60.7642 66.7215C56.5635 69.4519 54.4887 73.5985 54.4887 78.8027H59.0887ZM63.275 70.5758C66.2949 68.6041 70.4998 67.5076 76.0921 67.5076V62.9076C69.9484 62.9076 64.7703 64.1059 60.7603 66.7241L63.275 70.5758ZM76.0921 67.5076C78.9579 67.5076 81.6648 67.7968 84.2183 68.3673L85.2213 63.878C82.3135 63.2284 79.2686 62.9076 76.0921 62.9076V67.5076ZM84.2234 68.3684C86.8038 68.9388 89.4805 69.8551 92.2556 71.1316L94.178 66.9526C91.1432 65.5566 88.1553 64.5265 85.2162 63.8769L84.2234 68.3684ZM91.0948 68.1548L87.086 77.7411L91.3299 79.5158L95.3387 69.9295L91.0948 68.1548ZM90.1232 76.5184C87.6484 75.445 85.2899 74.5576 83.0495 73.8612L81.6841 78.2539C83.743 78.8938 85.9453 79.7204 88.2927 80.7385L90.1232 76.5184ZM83.058 73.8639C80.7153 73.1258 78.3181 72.7554 75.8742 72.7554V77.3554C77.8459 77.3554 79.777 77.6531 81.6756 78.2513L83.058 73.8639ZM75.8742 72.7554C73.7932 72.7554 71.8782 73.0229 70.3971 73.807L72.5494 77.8724C73.0436 77.6108 74.0626 77.3554 75.8742 77.3554V72.7554ZM70.3971 73.807C69.6109 74.2232 68.9053 74.8135 68.4057 75.6216C67.9032 76.4346 67.6917 77.3347 67.6917 78.2363H72.2917C72.2917 78.1441 72.3022 78.0914 72.3084 78.0681C72.314 78.0467 72.3183 78.0407 72.3185 78.0404C72.3189 78.0397 72.327 78.0259 72.3562 77.9999C72.387 77.9724 72.4462 77.9271 72.5494 77.8724L70.3971 73.807ZM67.6917 78.2363C67.6917 79.5478 68.1198 80.7558 68.9448 81.775L72.5201 78.8807C72.3575 78.6798 72.2917 78.4934 72.2917 78.2363H67.6917ZM68.9862 81.8247C69.8119 82.788 71.135 83.6368 72.6344 84.4164L74.7566 80.3352C73.3511 79.6043 72.6989 79.0878 72.4788 78.831L68.9862 81.8247ZM72.6832 84.441C74.2358 85.2021 76.4573 86.1696 79.3189 87.3376L81.0573 83.0787C78.2252 81.9228 76.1183 81.002 74.7079 80.3106L72.6832 84.441ZM79.3146 87.3358C81.9868 88.4329 84.2682 89.5703 86.174 90.741L88.5817 86.8215C86.4206 85.4939 83.9087 84.2493 81.0616 83.0805L79.3146 87.3358ZM86.1945 90.7535C87.9417 91.8018 89.2251 93.0701 90.1144 94.5445L94.0533 92.1686C92.7349 89.9827 90.8809 88.2008 88.5612 86.809L86.1945 90.7535ZM90.1229 94.5584C90.9387 95.8896 91.4397 97.7724 91.4397 100.372H96.0397C96.0397 97.2198 95.4367 94.4256 94.0448 92.1546L90.1229 94.5584Z" fill="#632009" fill-opacity="0.69"/>
<path d="M56.5848 104.74L53.0611 93.1713H35.343L31.8193 104.74H20.7164L37.8694 55.94H50.4682L67.6876 104.74H56.5848ZM50.6012 84.5283L47.0775 73.2259C46.8559 72.4724 46.5567 71.5084 46.1799 70.3339C45.8254 69.1371 45.4597 67.9293 45.083 66.7105C44.7284 65.4694 44.4403 64.3946 44.2187 63.486C43.997 64.3946 43.6868 65.5248 43.2879 66.8767C42.9111 68.2064 42.5455 69.4696 42.1909 70.6663C41.8363 71.863 41.5814 72.7162 41.4263 73.2259L37.9359 84.5283H50.6012Z" fill="#DC633A"/>
<path d="M56.5848 104.74L54.3846 105.41L54.881 107.04H56.5848V104.74ZM53.0611 93.1712L55.2613 92.5011L54.7648 90.8713H53.0611V93.1712ZM35.343 93.1712V90.8713H33.6392L33.1428 92.5011L35.343 93.1712ZM31.8193 104.74V107.04H33.5231L34.0195 105.41L31.8193 104.74ZM20.7164 104.74L18.5466 103.977L17.47 107.04H20.7164V104.74ZM37.8694 55.94V53.64H36.2399L35.6995 55.1773L37.8694 55.94ZM50.4682 55.94L52.6371 55.1747L52.0956 53.64H50.4682V55.94ZM67.6876 104.74V107.04H70.9382L69.8566 103.974L67.6876 104.74ZM50.6012 84.5283V86.8283H53.7274L52.7969 83.8437L50.6012 84.5283ZM47.0775 73.2259L44.8709 73.8749L44.8762 73.8928L44.8817 73.9105L47.0775 73.2259ZM46.1799 70.3339L43.9747 70.9873L43.982 71.0119L43.9899 71.0364L46.1799 70.3339ZM45.083 66.7105L42.8715 67.3423L42.8782 67.3661L42.8855 67.3897L45.083 66.7105ZM44.2187 63.486L46.4532 62.941H41.9842L44.2187 63.486ZM43.2879 66.8767L41.0819 66.2257L41.0784 66.2377L41.075 66.2497L43.2879 66.8767ZM41.4263 73.2259L43.6239 73.9046L43.6267 73.8956L41.4263 73.2259ZM37.9359 84.5283L35.7383 83.8496L34.8184 86.8283H37.9359V84.5283ZM58.785 104.069L55.2613 92.5011L50.8609 93.8414L54.3846 105.41L58.785 104.069ZM53.0611 90.8713H35.343V95.4713H53.0611V90.8713ZM33.1428 92.5011L29.6191 104.069L34.0195 105.41L37.5432 93.8414L33.1428 92.5011ZM31.8193 102.44H20.7164V107.04H31.8193V102.44ZM22.8863 105.502L40.0393 56.7027L35.6995 55.1773L18.5466 103.977L22.8863 105.502ZM37.8694 58.24H50.4682V53.64H37.8694V58.24ZM48.2993 56.7053L65.5187 105.505L69.8566 103.974L52.6371 55.1747L48.2993 56.7053ZM67.6876 102.44H56.5848V107.04H67.6876V102.44ZM52.7969 83.8437L49.2732 72.5414L44.8817 73.9105L48.4054 85.2128L52.7969 83.8437ZM49.284 72.577C49.0551 71.7985 48.7497 70.8149 48.37 69.6314L43.9899 71.0364C44.3637 72.2019 44.6567 73.1464 44.8709 73.8749L49.284 72.577ZM48.3852 69.6805C48.028 68.4749 47.6597 67.2585 47.2804 66.0313L42.8855 67.3897C43.2597 68.6002 43.6227 69.7994 43.9747 70.9873L48.3852 69.6805ZM47.2945 66.0786C46.9453 64.8564 46.6656 63.8119 46.4532 62.941L41.9842 64.031C42.215 64.9772 42.5115 66.0824 42.8715 67.3423L47.2945 66.0786ZM41.9842 62.941C41.7744 63.8011 41.4751 64.8933 41.0819 66.2257L45.4938 67.5276C45.8985 66.1563 46.2197 64.9881 46.4532 64.031L41.9842 62.941ZM41.075 66.2497C40.7005 67.5715 40.3374 68.8258 39.9856 70.0129L44.3961 71.3197C44.7536 70.1133 45.1218 68.8413 45.5008 67.5037L41.075 66.2497ZM39.9856 70.0129C39.6311 71.2094 39.3784 72.0554 39.226 72.5563L43.6267 73.8956C43.7845 73.377 44.0415 72.5166 44.3961 71.3197L39.9856 70.0129ZM39.2287 72.5473L35.7383 83.8496L40.1335 85.207L43.6239 73.9046L39.2287 72.5473ZM37.9359 86.8283H50.6012V82.2283H37.9359V86.8283Z" fill="#632009" fill-opacity="0.7"/>
</svg>
